<mxfile host="app.diagrams.net" modified="2023-10-16T07:31:57.515Z" agent="Mozilla/5.0 (Macintosh; Intel Mac OS X 10_15_7) AppleWebKit/537.36 (KHTML, like Gecko) Chrome/117.0.0.0 Safari/537.36" version="21.6.8" etag="xjiwQB754Ao7QyY8WMPE" type="github">
  <diagram name="第 1 页" id="hMkYHrBxjFcUD--IFLWu">
    <mxGraphModel>
      <root>
        <mxCell id="0" />
        <mxCell id="1" parent="0" />
      </root>
    </mxGraphModel>
  </diagram>
</mxfile>
